<svg xmlns="http://www.w3.org/2000/svg" width="256" height="256" viewBox="0 0 256 256" fill="none">
<defs>
  <linearGradient id="g8" x1="0%" y1="0%" x2="0%" y2="100%">
    <stop offset="0%" stop-color="#fde68a"/>
    <stop offset="100%" stop-color="#eab308"/>
  </linearGradient>
</defs><path d="M128 36 C98 40, 70 70, 64 108 C60 132, 66 160, 78 182 C94 210, 110 220, 128 224 C146 220, 162 210, 178 182 C190 160, 196 132, 192 108 C186 70, 158 40, 128 36 Z" fill="url(#g8)" stroke="#111827" stroke-width="2" stroke-linejoin="round" stroke-linecap="round" /><circle cx="62.2" cy="104.1" r="1.4" fill="#a16207"/><circle cx="51.2" cy="125.3" r="1.4" fill="#a16207"/><circle cx="48.3" cy="150.9" r="1.4" fill="#a16207"/><circle cx="55.2" cy="177.1" r="1.4" fill="#a16207"/><circle cx="72.0" cy="199.6" r="1.4" fill="#a16207"/><circle cx="96.5" cy="214.5" r="1.4" fill="#a16207"/><circle cx="124.8" cy="218.9" r="1.4" fill="#a16207"/><circle cx="152.2" cy="212.4" r="1.4" fill="#a16207"/><circle cx="174.4" cy="196.8" r="1.4" fill="#a16207"/><circle cx="188.5" cy="175.3" r="1.4" fill="#a16207"/><circle cx="193.8" cy="151.9" r="1.4" fill="#a16207"/></svg>