<svg xmlns="http://www.w3.org/2000/svg" width="256" height="256" viewBox="0 0 256 256" fill="none">
<defs>
  <linearGradient id="g6" x1="0%" y1="0%" x2="0%" y2="100%">
    <stop offset="0%" stop-color="#bbf7d0"/>
    <stop offset="100%" stop-color="#22c55e"/>
  </linearGradient>
</defs><path d="M128 26 C90 40, 60 84, 60 130 C60 172, 88 206, 128 230 C168 206, 196 172, 196 130 C196 84, 166 40, 128 26 Z" fill="url(#g6)" stroke="#111827" stroke-width="2" stroke-linejoin="round" stroke-linecap="round" /><path d="M128 36 L128 214" stroke="#065f46" stroke-width="2" stroke-linecap="round"/><path d="M128 70 C110 60, 98 66, 84 80" stroke="#065f46" stroke-width="1.5" fill="none"/><path d="M128 70 C146 60, 158 66, 172 80" stroke="#065f46" stroke-width="1.5" fill="none"/><path d="M128 88 C110 78, 98 84, 84 98" stroke="#065f46" stroke-width="1.5" fill="none"/><path d="M128 88 C146 78, 158 84, 172 98" stroke="#065f46" stroke-width="1.5" fill="none"/><path d="M128 106 C110 96, 98 102, 84 116" stroke="#065f46" stroke-width="1.5" fill="none"/><path d="M128 106 C146 96, 158 102, 172 116" stroke="#065f46" stroke-width="1.5" fill="none"/><path d="M128 124 C110 114, 98 120, 84 134" stroke="#065f46" stroke-width="1.5" fill="none"/><path d="M128 124 C146 114, 158 120, 172 134" stroke="#065f46" stroke-width="1.5" fill="none"/><path d="M128 142 C110 132, 98 138, 84 152" stroke="#065f46" stroke-width="1.5" fill="none"/><path d="M128 142 C146 132, 158 138, 172 152" stroke="#065f46" stroke-width="1.5" fill="none"/><path d="M128 160 C110 150, 98 156, 84 170" stroke="#065f46" stroke-width="1.5" fill="none"/><path d="M128 160 C146 150, 158 156, 172 170" stroke="#065f46" stroke-width="1.5" fill="none"/><path d="M128 178 C110 168, 98 174, 84 188" stroke="#065f46" stroke-width="1.5" fill="none"/><path d="M128 178 C146 168, 158 174, 172 188" stroke="#065f46" stroke-width="1.5" fill="none"/><path d="M128 196 C110 186, 98 192, 84 206" stroke="#065f46" stroke-width="1.5" fill="none"/><path d="M128 196 C146 186, 158 192, 172 206" stroke="#065f46" stroke-width="1.5" fill="none"/></svg>