<svg xmlns="http://www.w3.org/2000/svg" width="512" height="320" viewBox="0 0 512 320" fill="none">
<defs>
  <linearGradient id="sky" x1="0%" y1="0%" x2="0%" y2="100%">
    <stop offset="0%" stop-color="#e0f2fe"/>
    <stop offset="100%" stop-color="#ffffff"/>
  </linearGradient>
  <linearGradient id="cloud" x1="0%" y1="0%" x2="100%" y2="100%">
    <stop offset="0%" stop-color="#ffffff"/>
    <stop offset="100%" stop-color="#e5e7eb"/>
  </linearGradient>
  <filter id="soft" x="-20%" y="-20%" width="140%" height="140%">
    <feGaussianBlur in="SourceGraphic" stdDeviation="3"/>
  </filter>
  <filter id="softer" x="-30%" y="-30%" width="160%" height="160%">
    <feGaussianBlur in="SourceGraphic" stdDeviation="6"/>
  </filter>
</defs><path d="M40 210 Q 52 217.35, 64 210.00 Q 76 213.60, 88 210.00 Q 100 212.59, 112 210.00 Q 124 204.22, 136 210.00 Q 148 199.25, 160 210.00 Q 172 207.77, 184 210.00 Q 196 213.37, 208 210.00 Q 220 214.29, 232 210.00 Q 244 218.66, 256 210.00 Q 268 214.06, 280 210.00 Q 292 202.73, 304 210.00 Q 316 202.67, 328 210.00 Q 340 206.40, 352 210.00 Q 364 207.42, 376 210.00 Q 388 215.83, 400 210.00 Q 412 220.73, 424 210.00 Q 436 212.18, 448 210.00 Q 460 206.62, 472 210.00 " stroke="#94a3b8" stroke-width="2.00" opacity="0.60" fill="none" stroke-linecap="round"/><path d="M40 224 Q 52 230.24, 64 224.00 Q 76 227.03, 88 224.00 Q 100 224.99, 112 224.00 Q 124 215.88, 136 224.00 Q 148 214.43, 160 224.00 Q 172 224.27, 184 224.00 Q 196 227.97, 208 224.00 Q 220 229.20, 232 224.00 Q 244 232.56, 256 224.00 Q 268 224.97, 280 224.00 Q 292 215.18, 304 224.00 Q 316 217.79, 328 224.00 Q 340 220.97, 352 224.00 Q 364 223.03, 376 224.00 Q 388 232.16, 400 224.00 Q 412 233.54, 424 224.00 Q 436 223.69, 448 224.00 Q 460 220.03, 472 224.00 " stroke="#94a3b8" stroke-width="1.90" opacity="0.52" fill="none" stroke-linecap="round"/><path d="M40 238 Q 52 242.93, 64 238.00 Q 76 240.44, 88 238.00 Q 100 237.01, 112 238.00 Q 124 228.15, 136 238.00 Q 148 230.44, 160 238.00 Q 172 240.45, 184 238.00 Q 196 242.34, 208 238.00 Q 220 244.08, 232 238.00 Q 244 245.68, 256 238.00 Q 268 235.75, 280 238.00 Q 292 228.49, 304 238.00 Q 316 233.10, 328 238.00 Q 340 235.56, 352 238.00 Q 364 239.02, 376 238.00 Q 388 247.87, 400 238.00 Q 412 245.52, 424 238.00 Q 436 235.52, 448 238.00 Q 460 233.66, 472 238.00 " stroke="#94a3b8" stroke-width="1.80" opacity="0.44" fill="none" stroke-linecap="round"/><path d="M40 252 Q 52 255.59, 64 252.00 Q 76 253.73, 88 252.00 Q 100 248.78, 112 252.00 Q 124 241.26, 136 252.00 Q 148 247.05, 160 252.00 Q 172 256.15, 184 252.00 Q 196 256.59, 208 252.00 Q 220 258.79, 232 252.00 Q 244 257.99, 256 252.00 Q 268 246.72, 280 252.00 Q 292 242.67, 304 252.00 Q 316 248.43, 328 252.00 Q 340 250.27, 352 252.00 Q 364 255.26, 376 252.00 Q 388 262.75, 400 252.00 Q 412 256.90, 424 252.00 Q 436 247.83, 448 252.00 Q 460 247.41, 472 252.00 " stroke="#94a3b8" stroke-width="1.70" opacity="0.36" fill="none" stroke-linecap="round"/><path d="M40 266 Q 52 268.36, 64 266.00 Q 76 266.82, 88 266.00 Q 100 260.50, 112 266.00 Q 124 255.33, 136 266.00 Q 148 263.95, 160 266.00 Q 172 271.29, 184 266.00 Q 196 270.80, 208 266.00 Q 220 273.16, 232 266.00 Q 244 269.62, 256 266.00 Q 268 258.20, 280 266.00 Q 292 257.60, 304 266.00 Q 316 263.66, 328 266.00 Q 340 265.19, 352 266.00 Q 364 271.54, 376 266.00 Q 388 276.66, 400 266.00 Q 412 267.99, 424 266.00 Q 436 260.70, 448 266.00 Q 460 261.20, 472 266.00 " stroke="#94a3b8" stroke-width="1.60" opacity="0.28" fill="none" stroke-linecap="round"/><path d="M40 280 Q 52 281.29, 64 280.00 Q 76 279.65, 88 280.00 Q 100 272.43, 112 280.00 Q 124 270.39, 136 280.00 Q 148 280.85, 160 280.00 Q 172 285.90, 184 280.00 Q 196 285.02, 208 280.00 Q 220 287.04, 232 280.00 Q 244 280.74, 256 280.00 Q 268 270.44, 280 280.00 Q 292 273.10, 304 280.00 Q 316 278.72, 328 280.00 Q 340 280.37, 352 280.00 Q 364 287.61, 376 280.00 Q 388 289.58, 400 280.00 Q 412 279.10, 424 280.00 Q 436 274.10, 448 280.00 Q 460 274.97, 472 280.00 " stroke="#94a3b8" stroke-width="1.50" opacity="0.20" fill="none" stroke-linecap="round"/></svg>