<svg xmlns="http://www.w3.org/2000/svg" width="512" height="320" viewBox="0 0 512 320" fill="none">
<defs>
  <linearGradient id="sky" x1="0%" y1="0%" x2="0%" y2="100%">
    <stop offset="0%" stop-color="#e0f2fe"/>
    <stop offset="100%" stop-color="#ffffff"/>
  </linearGradient>
  <linearGradient id="cloud" x1="0%" y1="0%" x2="100%" y2="100%">
    <stop offset="0%" stop-color="#ffffff"/>
    <stop offset="100%" stop-color="#e5e7eb"/>
  </linearGradient>
  <filter id="soft" x="-20%" y="-20%" width="140%" height="140%">
    <feGaussianBlur in="SourceGraphic" stdDeviation="3"/>
  </filter>
  <filter id="softer" x="-30%" y="-30%" width="160%" height="160%">
    <feGaussianBlur in="SourceGraphic" stdDeviation="6"/>
  </filter>
</defs><path d="M96 200 C120 176, 160 168, 188 184 C204 164, 244 160, 270 182 C296 170, 332 176, 348 196 C380 198, 396 212, 396 228 C396 250, 374 264, 344 264 H152 C122 264, 100 248, 100 224 C100 212, 106 204, 116 200 Z" fill="url(#cloud)" stroke="#94a3b8" stroke-width="2"/></svg>