<svg xmlns="http://www.w3.org/2000/svg" width="512" height="320" viewBox="0 0 512 320" fill="none">
<defs>
  <linearGradient id="sky" x1="0%" y1="0%" x2="0%" y2="100%">
    <stop offset="0%" stop-color="#e0f2fe"/>
    <stop offset="100%" stop-color="#ffffff"/>
  </linearGradient>
  <linearGradient id="cloud" x1="0%" y1="0%" x2="100%" y2="100%">
    <stop offset="0%" stop-color="#ffffff"/>
    <stop offset="100%" stop-color="#e5e7eb"/>
  </linearGradient>
  <filter id="soft" x="-20%" y="-20%" width="140%" height="140%">
    <feGaussianBlur in="SourceGraphic" stdDeviation="3"/>
  </filter>
  <filter id="softer" x="-30%" y="-30%" width="160%" height="160%">
    <feGaussianBlur in="SourceGraphic" stdDeviation="6"/>
  </filter>
</defs>
<g fill="url(#cloud)" stroke="#94a3b8" stroke-width="2">
  <path d="M130 180
           c-20 -40 20 -80 64 -68
           c16 -30 58 -36 86 -8
           c28 -10 60 8 66 36
           c26 0 46 18 46 40
           c0 28 -20 48 -48 48H154
           c-34 0 -64 -22 -64 -48
           c0 -18 14 -34 40 -40z"/>
</g></svg>