<svg xmlns="http://www.w3.org/2000/svg" width="512" height="320" viewBox="0 0 512 320" fill="none">
<defs>
  <linearGradient id="sky" x1="0%" y1="0%" x2="0%" y2="100%">
    <stop offset="0%" stop-color="#e0f2fe"/>
    <stop offset="100%" stop-color="#ffffff"/>
  </linearGradient>
  <linearGradient id="cloud" x1="0%" y1="0%" x2="100%" y2="100%">
    <stop offset="0%" stop-color="#ffffff"/>
    <stop offset="100%" stop-color="#e5e7eb"/>
  </linearGradient>
  <filter id="soft" x="-20%" y="-20%" width="140%" height="140%">
    <feGaussianBlur in="SourceGraphic" stdDeviation="3"/>
  </filter>
  <filter id="softer" x="-30%" y="-30%" width="160%" height="160%">
    <feGaussianBlur in="SourceGraphic" stdDeviation="6"/>
  </filter>
</defs><rect width="512" height="320" fill="url(#sky)"/><path d="M0 220 L 0 220.00 L 16 224.67 L 32 228.61 L 48 231.18 L 64 231.99 L 80 230.91 L 96 228.11 L 112 224.02 L 128 219.30 L 144 214.69 L 160 210.92 L 176 208.58 L 192 208.05 L 208 209.40 L 224 212.42 L 240 216.65 L 256 221.40 L 272 225.93 L 288 229.52 L 304 231.62 L 320 231.87 L 336 230.26 L 352 227.02 L 368 222.67 L 384 217.91 L 400 213.47 L 416 210.07 L 432 208.23 L 448 208.25 L 464 210.13 L 480 213.56 L 496 218.01 L 512 222.78  L 512 320 L 0 320 Z" fill="#94a3b8" opacity="0.12" filter="url(#soft)"/><path d="M0 234 L 0 236.47 L 16 240.05 L 32 242.67 L 48 243.93 L 64 243.61 L 80 241.78 L 96 238.72 L 112 234.91 L 128 230.96 L 144 227.49 L 160 225.05 L 176 224.02 L 192 224.56 L 208 226.60 L 224 229.80 L 240 233.67 L 256 237.59 L 272 240.94 L 288 243.20 L 304 244.00 L 320 243.23 L 336 241.00 L 352 237.66 L 368 233.75 L 384 229.87 L 400 226.65 L 416 224.59 L 432 224.01 L 448 225.01 L 464 227.43 L 480 230.89 L 496 234.84 L 512 238.65  L 512 320 L 0 320 Z" fill="#94a3b8" opacity="0.2" filter="url(#soft)"/><path d="M0 248 L 0 251.84 L 16 254.27 L 32 255.71 L 48 255.93 L 64 254.91 L 80 252.79 L 96 249.91 L 112 246.74 L 128 243.76 L 144 241.45 L 160 240.18 L 176 240.14 L 192 241.34 L 208 243.59 L 224 246.54 L 240 249.72 L 256 252.63 L 272 254.80 L 288 255.91 L 304 255.76 L 320 254.39 L 336 252.01 L 352 249.00 L 368 245.83 L 384 243.00 L 400 240.96 L 416 240.04 L 432 240.37 L 448 241.90 L 464 244.40 L 480 247.47 L 496 250.62 L 512 253.36  L 512 320 L 0 320 Z" fill="#94a3b8" opacity="0.28" filter="url(#soft)"/><path d="M0 262 L 0 266.09 L 16 267.48 L 32 268.00 L 48 267.57 L 64 266.27 L 80 264.29 L 96 261.95 L 112 259.62 L 128 257.66 L 144 256.39 L 160 256.00 L 176 256.57 L 192 257.98 L 208 260.04 L 224 262.40 L 240 264.70 L 256 266.57 L 272 267.72 L 288 267.97 L 304 267.28 L 320 265.75 L 336 263.63 L 352 261.25 L 368 258.99 L 384 257.21 L 400 256.18 L 416 256.07 L 432 256.90 L 448 258.53 L 464 260.71 L 480 263.10 L 496 265.31 L 512 267.00  L 512 320 L 0 320 Z" fill="#94a3b8" opacity="0.36" filter="url(#soft)"/><path d="M0 276 L 0 280.21 L 16 280.93 L 32 280.87 L 48 280.04 L 64 278.58 L 80 276.71 L 96 274.72 L 112 272.94 L 128 271.64 L 144 271.03 L 160 271.21 L 176 272.14 L 192 273.68 L 208 275.58 L 224 277.56 L 240 279.28 L 256 280.49 L 272 280.99 L 288 280.70 L 304 279.67 L 320 278.06 L 336 276.12 L 352 274.17 L 368 272.50 L 384 271.39 L 400 271.00 L 416 271.40 L 432 272.53 L 448 274.21 L 464 276.17 L 480 278.10 L 496 279.70 L 512 280.72  L 512 320 L 0 320 Z" fill="#94a3b8" opacity="0.44" filter="url(#soft)"/></svg>