<svg xmlns="http://www.w3.org/2000/svg" width="512" height="320" viewBox="0 0 512 320" fill="none">
<defs>
  <linearGradient id="sky" x1="0%" y1="0%" x2="0%" y2="100%">
    <stop offset="0%" stop-color="#e0f2fe"/>
    <stop offset="100%" stop-color="#ffffff"/>
  </linearGradient>
  <linearGradient id="cloud" x1="0%" y1="0%" x2="100%" y2="100%">
    <stop offset="0%" stop-color="#ffffff"/>
    <stop offset="100%" stop-color="#e5e7eb"/>
  </linearGradient>
  <filter id="soft" x="-20%" y="-20%" width="140%" height="140%">
    <feGaussianBlur in="SourceGraphic" stdDeviation="3"/>
  </filter>
  <filter id="softer" x="-30%" y="-30%" width="160%" height="160%">
    <feGaussianBlur in="SourceGraphic" stdDeviation="6"/>
  </filter>
</defs><rect width="512" height="320" fill="url(#sky)"/><rect x="0" y="140" width="512" height="14" rx="7" fill="#94a3b8" opacity="0.08" filter="url(#soft)"/><rect x="0" y="158" width="512" height="14" rx="7" fill="#94a3b8" opacity="0.1" filter="url(#soft)"/><rect x="0" y="176" width="512" height="14" rx="7" fill="#94a3b8" opacity="0.12" filter="url(#soft)"/><rect x="0" y="194" width="512" height="14" rx="7" fill="#94a3b8" opacity="0.14" filter="url(#soft)"/><rect x="0" y="212" width="512" height="14" rx="7" fill="#94a3b8" opacity="0.16" filter="url(#soft)"/><rect x="0" y="230" width="512" height="14" rx="7" fill="#94a3b8" opacity="0.18" filter="url(#soft)"/><rect x="0" y="248" width="512" height="14" rx="7" fill="#94a3b8" opacity="0.2" filter="url(#soft)"/><rect x="0" y="266" width="512" height="14" rx="7" fill="#94a3b8" opacity="0.22000000000000003" filter="url(#soft)"/></svg>