<svg xmlns="http://www.w3.org/2000/svg" width="256" height="256" viewBox="0 0 256 256" fill="none" stroke="currentColor" stroke-width="2" stroke-linecap="round" stroke-linejoin="round"><g stroke="#3BA5FF"><line x1="128.00" y1="128.00" x2="128.00" y2="38.00"/>
<line x1="128.00" y1="110.00" x2="125.04" y2="104.44"/>
<line x1="128.00" y1="110.00" x2="130.96" y2="104.44"/>
<line x1="128.00" y1="92.00" x2="122.08" y2="80.87"/>
<line x1="128.00" y1="92.00" x2="133.92" y2="80.87"/>
<line x1="128.00" y1="74.00" x2="119.13" y2="57.31"/>
<line x1="128.00" y1="74.00" x2="136.87" y2="57.31"/>
<line x1="128.00" y1="56.00" x2="116.17" y2="33.75"/>
<line x1="128.00" y1="56.00" x2="139.83" y2="33.75"/>
<line x1="128.00" y1="128.00" x2="205.94" y2="83.00"/>
<line x1="143.59" y1="119.00" x2="146.93" y2="113.66"/>
<line x1="143.59" y1="119.00" x2="149.88" y2="118.78"/>
<line x1="159.18" y1="110.00" x2="165.85" y2="99.31"/>
<line x1="159.18" y1="110.00" x2="171.77" y2="109.56"/>
<line x1="174.77" y1="101.00" x2="184.78" y2="84.97"/>
<line x1="174.77" y1="101.00" x2="193.65" y2="100.34"/>
<line x1="190.35" y1="92.00" x2="203.71" y2="70.63"/>
<line x1="190.35" y1="92.00" x2="215.54" y2="91.12"/>
<line x1="128.00" y1="128.00" x2="205.94" y2="173.00"/>
<line x1="143.59" y1="137.00" x2="149.88" y2="137.22"/>
<line x1="143.59" y1="137.00" x2="146.93" y2="142.34"/>
<line x1="159.18" y1="146.00" x2="171.77" y2="146.44"/>
<line x1="159.18" y1="146.00" x2="165.85" y2="156.69"/>
<line x1="174.77" y1="155.00" x2="193.65" y2="155.66"/>
<line x1="174.77" y1="155.00" x2="184.78" y2="171.03"/>
<line x1="190.35" y1="164.00" x2="215.54" y2="164.88"/>
<line x1="190.35" y1="164.00" x2="203.71" y2="185.37"/>
<line x1="128.00" y1="128.00" x2="128.00" y2="218.00"/>
<line x1="128.00" y1="146.00" x2="130.96" y2="151.56"/>
<line x1="128.00" y1="146.00" x2="125.04" y2="151.56"/>
<line x1="128.00" y1="164.00" x2="133.92" y2="175.13"/>
<line x1="128.00" y1="164.00" x2="122.08" y2="175.13"/>
<line x1="128.00" y1="182.00" x2="136.87" y2="198.69"/>
<line x1="128.00" y1="182.00" x2="119.13" y2="198.69"/>
<line x1="128.00" y1="200.00" x2="139.83" y2="222.25"/>
<line x1="128.00" y1="200.00" x2="116.17" y2="222.25"/>
<line x1="128.00" y1="128.00" x2="50.06" y2="173.00"/>
<line x1="112.41" y1="137.00" x2="109.07" y2="142.34"/>
<line x1="112.41" y1="137.00" x2="106.12" y2="137.22"/>
<line x1="96.82" y1="146.00" x2="90.15" y2="156.69"/>
<line x1="96.82" y1="146.00" x2="84.23" y2="146.44"/>
<line x1="81.23" y1="155.00" x2="71.22" y2="171.03"/>
<line x1="81.23" y1="155.00" x2="62.35" y2="155.66"/>
<line x1="65.65" y1="164.00" x2="52.29" y2="185.37"/>
<line x1="65.65" y1="164.00" x2="40.46" y2="164.88"/>
<line x1="128.00" y1="128.00" x2="50.06" y2="83.00"/>
<line x1="112.41" y1="119.00" x2="106.12" y2="118.78"/>
<line x1="112.41" y1="119.00" x2="109.07" y2="113.66"/>
<line x1="96.82" y1="110.00" x2="84.23" y2="109.56"/>
<line x1="96.82" y1="110.00" x2="90.15" y2="99.31"/>
<line x1="81.23" y1="101.00" x2="62.35" y2="100.34"/>
<line x1="81.23" y1="101.00" x2="71.22" y2="84.97"/>
<line x1="65.65" y1="92.00" x2="40.46" y2="91.12"/>
<line x1="65.65" y1="92.00" x2="52.29" y2="70.63"/></g></svg>