<svg xmlns="http://www.w3.org/2000/svg" width="256" height="256" viewBox="0 0 256 256" fill="none" stroke="currentColor" stroke-width="2" stroke-linecap="round" stroke-linejoin="round"><g stroke="#22D3EE"><line x1="226.00" y1="128.00" x2="184.80" y2="143.22"/><line x1="212.87" y1="177.00" x2="169.58" y2="169.58"/><line x1="177.00" y1="212.87" x2="143.22" y2="184.80"/><line x1="128.00" y1="226.00" x2="112.78" y2="184.80"/><line x1="79.00" y1="212.87" x2="86.42" y2="169.58"/><line x1="43.13" y1="177.00" x2="71.20" y2="143.22"/><line x1="30.00" y1="128.00" x2="71.20" y2="112.78"/><line x1="43.13" y1="79.00" x2="86.42" y2="86.42"/><line x1="79.00" y1="43.13" x2="112.78" y2="71.20"/><line x1="128.00" y1="30.00" x2="143.22" y2="71.20"/><line x1="177.00" y1="43.13" x2="169.58" y2="86.42"/><line x1="212.87" y1="79.00" x2="184.80" y2="112.78"/><line x1="137.80" y1="128.00" x2="226.00" y2="128.00"/><line x1="132.90" y1="136.49" x2="177.00" y2="212.87"/><line x1="123.10" y1="136.49" x2="79.00" y2="212.87"/><line x1="118.20" y1="128.00" x2="30.00" y2="128.00"/><line x1="123.10" y1="119.51" x2="79.00" y2="43.13"/><line x1="132.90" y1="119.51" x2="177.00" y2="43.13"/><path d="M 147.60 128.00 L 137.80 144.97 L 118.20 144.97 L 108.40 128.00 L 118.20 111.03 L 137.80 111.03 Z"/></g></svg>