<svg xmlns="http://www.w3.org/2000/svg" width="256" height="256" viewBox="0 0 256 256" fill="none" stroke="currentColor" stroke-width="2" stroke-linecap="round" stroke-linejoin="round"><g stroke="#7DD3FC"><circle cx="218.00" cy="128.00" r="2.70" />
<circle cx="216.03" cy="146.71" r="2.70" />
<circle cx="210.22" cy="164.61" r="2.70" />
<circle cx="200.81" cy="180.90" r="2.70" />
<circle cx="188.22" cy="194.88" r="2.70" />
<circle cx="173.00" cy="205.94" r="2.70" />
<circle cx="155.81" cy="213.60" r="2.70" />
<circle cx="137.41" cy="217.51" r="2.70" />
<circle cx="118.59" cy="217.51" r="2.70" />
<circle cx="100.19" cy="213.60" r="2.70" />
<circle cx="83.00" cy="205.94" r="2.70" />
<circle cx="67.78" cy="194.88" r="2.70" />
<circle cx="55.19" cy="180.90" r="2.70" />
<circle cx="45.78" cy="164.61" r="2.70" />
<circle cx="39.97" cy="146.71" r="2.70" />
<circle cx="38.00" cy="128.00" r="2.70" />
<circle cx="39.97" cy="109.29" r="2.70" />
<circle cx="45.78" cy="91.39" r="2.70" />
<circle cx="55.19" cy="75.10" r="2.70" />
<circle cx="67.78" cy="61.12" r="2.70" />
<circle cx="83.00" cy="50.06" r="2.70" />
<circle cx="100.19" cy="42.40" r="2.70" />
<circle cx="118.59" cy="38.49" r="2.70" />
<circle cx="137.41" cy="38.49" r="2.70" />
<circle cx="155.81" cy="42.40" r="2.70" />
<circle cx="173.00" cy="50.06" r="2.70" />
<circle cx="188.22" cy="61.12" r="2.70" />
<circle cx="200.81" cy="75.10" r="2.70" />
<circle cx="210.22" cy="91.39" r="2.70" />
<circle cx="216.03" cy="109.29" r="2.70" /><line x1="128.00" y1="128.00" x2="128.00" y2="40.00"/>
<line x1="128.00" y1="106.00" x2="125.58" y2="100.02"/>
<line x1="128.00" y1="106.00" x2="130.42" y2="100.02"/>
<line x1="128.00" y1="84.00" x2="123.17" y2="72.03"/>
<line x1="128.00" y1="84.00" x2="132.83" y2="72.03"/>
<line x1="128.00" y1="62.00" x2="120.75" y2="44.05"/>
<line x1="128.00" y1="62.00" x2="135.25" y2="44.05"/>
<line x1="128.00" y1="128.00" x2="204.21" y2="84.00"/>
<line x1="147.05" y1="117.00" x2="151.03" y2="111.91"/>
<line x1="147.05" y1="117.00" x2="153.44" y2="116.10"/>
<line x1="166.11" y1="106.00" x2="174.05" y2="95.83"/>
<line x1="166.11" y1="106.00" x2="178.89" y2="104.20"/>
<line x1="185.16" y1="95.00" x2="197.08" y2="79.74"/>
<line x1="185.16" y1="95.00" x2="204.33" y2="92.31"/>
<line x1="128.00" y1="128.00" x2="204.21" y2="172.00"/>
<line x1="147.05" y1="139.00" x2="153.44" y2="139.90"/>
<line x1="147.05" y1="139.00" x2="151.03" y2="144.09"/>
<line x1="166.11" y1="150.00" x2="178.89" y2="151.80"/>
<line x1="166.11" y1="150.00" x2="174.05" y2="160.17"/>
<line x1="185.16" y1="161.00" x2="204.33" y2="163.69"/>
<line x1="185.16" y1="161.00" x2="197.08" y2="176.26"/>
<line x1="128.00" y1="128.00" x2="128.00" y2="216.00"/>
<line x1="128.00" y1="150.00" x2="130.42" y2="155.98"/>
<line x1="128.00" y1="150.00" x2="125.58" y2="155.98"/>
<line x1="128.00" y1="172.00" x2="132.83" y2="183.97"/>
<line x1="128.00" y1="172.00" x2="123.17" y2="183.97"/>
<line x1="128.00" y1="194.00" x2="135.25" y2="211.95"/>
<line x1="128.00" y1="194.00" x2="120.75" y2="211.95"/>
<line x1="128.00" y1="128.00" x2="51.79" y2="172.00"/>
<line x1="108.95" y1="139.00" x2="104.97" y2="144.09"/>
<line x1="108.95" y1="139.00" x2="102.56" y2="139.90"/>
<line x1="89.89" y1="150.00" x2="81.95" y2="160.17"/>
<line x1="89.89" y1="150.00" x2="77.11" y2="151.80"/>
<line x1="70.84" y1="161.00" x2="58.92" y2="176.26"/>
<line x1="70.84" y1="161.00" x2="51.67" y2="163.69"/>
<line x1="128.00" y1="128.00" x2="51.79" y2="84.00"/>
<line x1="108.95" y1="117.00" x2="102.56" y2="116.10"/>
<line x1="108.95" y1="117.00" x2="104.97" y2="111.91"/>
<line x1="89.89" y1="106.00" x2="77.11" y2="104.20"/>
<line x1="89.89" y1="106.00" x2="81.95" y2="95.83"/>
<line x1="70.84" y1="95.00" x2="51.67" y2="92.31"/>
<line x1="70.84" y1="95.00" x2="58.92" y2="79.74"/></g></svg>