<svg xmlns="http://www.w3.org/2000/svg" width="256" height="256" viewBox="0 0 256 256" fill="none" stroke="currentColor" stroke-width="2" stroke-linecap="round" stroke-linejoin="round"><g stroke="#60A5FA"><line x1="128.00" y1="128.00" x2="128.00" y2="33.00"/><line x1="128.00" y1="75.75" x2="114.70" y2="52.71"/><line x1="128.00" y1="75.75" x2="141.30" y2="52.71"/><line x1="128.00" y1="128.00" x2="210.27" y2="80.50"/><line x1="173.25" y1="101.88" x2="186.55" y2="78.84"/><line x1="173.25" y1="101.88" x2="199.85" y2="101.88"/><line x1="128.00" y1="128.00" x2="210.27" y2="175.50"/><line x1="173.25" y1="154.12" x2="199.85" y2="154.12"/><line x1="173.25" y1="154.12" x2="186.55" y2="177.16"/><line x1="128.00" y1="128.00" x2="128.00" y2="223.00"/><line x1="128.00" y1="180.25" x2="141.30" y2="203.29"/><line x1="128.00" y1="180.25" x2="114.70" y2="203.29"/><line x1="128.00" y1="128.00" x2="45.73" y2="175.50"/><line x1="82.75" y1="154.12" x2="69.45" y2="177.16"/><line x1="82.75" y1="154.12" x2="56.15" y2="154.12"/><line x1="128.00" y1="128.00" x2="45.73" y2="80.50"/><line x1="82.75" y1="101.87" x2="56.15" y2="101.87"/><line x1="82.75" y1="101.87" x2="69.45" y2="78.84"/></g></svg>