<svg xmlns="http://www.w3.org/2000/svg" width="256" height="256" viewBox="0 0 256 256" fill="none" stroke="currentColor" stroke-width="2" stroke-linecap="round" stroke-linejoin="round"><g stroke="#6EC1FF"><line x1="128.00" y1="128.00" x2="128.00" y2="36.00"/>
<line x1="128.00" y1="114.86" x2="126.21" y2="112.00"/>
<line x1="128.00" y1="114.86" x2="129.79" y2="112.00"/>
<line x1="128.00" y1="101.71" x2="124.42" y2="95.99"/>
<line x1="128.00" y1="101.71" x2="131.58" y2="95.99"/>
<line x1="128.00" y1="88.57" x2="122.64" y2="79.99"/>
<line x1="128.00" y1="88.57" x2="133.36" y2="79.99"/>
<line x1="128.00" y1="75.43" x2="120.85" y2="63.99"/>
<line x1="128.00" y1="75.43" x2="135.15" y2="63.99"/>
<line x1="128.00" y1="62.29" x2="119.06" y2="47.98"/>
<line x1="128.00" y1="62.29" x2="136.94" y2="47.98"/>
<line x1="128.00" y1="49.14" x2="117.27" y2="31.98"/>
<line x1="128.00" y1="49.14" x2="138.73" y2="31.98"/>
<line x1="128.00" y1="128.00" x2="207.67" y2="82.00"/>
<line x1="139.38" y1="121.43" x2="140.97" y2="118.45"/>
<line x1="139.38" y1="121.43" x2="142.75" y2="121.55"/>
<line x1="150.76" y1="114.86" x2="153.93" y2="108.90"/>
<line x1="150.76" y1="114.86" x2="157.51" y2="115.09"/>
<line x1="162.15" y1="108.29" x2="166.90" y2="99.35"/>
<line x1="162.15" y1="108.29" x2="172.26" y2="108.64"/>
<line x1="173.53" y1="101.71" x2="179.86" y2="89.80"/>
<line x1="173.53" y1="101.71" x2="187.01" y2="102.19"/>
<line x1="184.91" y1="95.14" x2="192.83" y2="80.25"/>
<line x1="184.91" y1="95.14" x2="201.77" y2="95.73"/>
<line x1="196.29" y1="88.57" x2="205.79" y2="70.70"/>
<line x1="196.29" y1="88.57" x2="216.52" y2="89.28"/>
<line x1="128.00" y1="128.00" x2="207.67" y2="174.00"/>
<line x1="139.38" y1="134.57" x2="142.75" y2="134.45"/>
<line x1="139.38" y1="134.57" x2="140.97" y2="137.55"/>
<line x1="150.76" y1="141.14" x2="157.51" y2="140.91"/>
<line x1="150.76" y1="141.14" x2="153.93" y2="147.10"/>
<line x1="162.15" y1="147.71" x2="172.26" y2="147.36"/>
<line x1="162.15" y1="147.71" x2="166.90" y2="156.65"/>
<line x1="173.53" y1="154.29" x2="187.01" y2="153.81"/>
<line x1="173.53" y1="154.29" x2="179.86" y2="166.20"/>
<line x1="184.91" y1="160.86" x2="201.77" y2="160.27"/>
<line x1="184.91" y1="160.86" x2="192.83" y2="175.75"/>
<line x1="196.29" y1="167.43" x2="216.52" y2="166.72"/>
<line x1="196.29" y1="167.43" x2="205.79" y2="185.30"/>
<line x1="128.00" y1="128.00" x2="128.00" y2="220.00"/>
<line x1="128.00" y1="141.14" x2="129.79" y2="144.00"/>
<line x1="128.00" y1="141.14" x2="126.21" y2="144.00"/>
<line x1="128.00" y1="154.29" x2="131.58" y2="160.01"/>
<line x1="128.00" y1="154.29" x2="124.42" y2="160.01"/>
<line x1="128.00" y1="167.43" x2="133.36" y2="176.01"/>
<line x1="128.00" y1="167.43" x2="122.64" y2="176.01"/>
<line x1="128.00" y1="180.57" x2="135.15" y2="192.01"/>
<line x1="128.00" y1="180.57" x2="120.85" y2="192.01"/>
<line x1="128.00" y1="193.71" x2="136.94" y2="208.02"/>
<line x1="128.00" y1="193.71" x2="119.06" y2="208.02"/>
<line x1="128.00" y1="206.86" x2="138.73" y2="224.02"/>
<line x1="128.00" y1="206.86" x2="117.27" y2="224.02"/>
<line x1="128.00" y1="128.00" x2="48.33" y2="174.00"/>
<line x1="116.62" y1="134.57" x2="115.03" y2="137.55"/>
<line x1="116.62" y1="134.57" x2="113.25" y2="134.45"/>
<line x1="105.24" y1="141.14" x2="102.07" y2="147.10"/>
<line x1="105.24" y1="141.14" x2="98.49" y2="140.91"/>
<line x1="93.85" y1="147.71" x2="89.10" y2="156.65"/>
<line x1="93.85" y1="147.71" x2="83.74" y2="147.36"/>
<line x1="82.47" y1="154.29" x2="76.14" y2="166.20"/>
<line x1="82.47" y1="154.29" x2="68.99" y2="153.81"/>
<line x1="71.09" y1="160.86" x2="63.17" y2="175.75"/>
<line x1="71.09" y1="160.86" x2="54.23" y2="160.27"/>
<line x1="59.71" y1="167.43" x2="50.21" y2="185.30"/>
<line x1="59.71" y1="167.43" x2="39.48" y2="166.72"/>
<line x1="128.00" y1="128.00" x2="48.33" y2="82.00"/>
<line x1="116.62" y1="121.43" x2="113.25" y2="121.55"/>
<line x1="116.62" y1="121.43" x2="115.03" y2="118.45"/>
<line x1="105.24" y1="114.86" x2="98.49" y2="115.09"/>
<line x1="105.24" y1="114.86" x2="102.07" y2="108.90"/>
<line x1="93.85" y1="108.29" x2="83.74" y2="108.64"/>
<line x1="93.85" y1="108.29" x2="89.10" y2="99.35"/>
<line x1="82.47" y1="101.71" x2="68.99" y2="102.19"/>
<line x1="82.47" y1="101.71" x2="76.14" y2="89.80"/>
<line x1="71.09" y1="95.14" x2="54.23" y2="95.73"/>
<line x1="71.09" y1="95.14" x2="63.17" y2="80.25"/>
<line x1="59.71" y1="88.57" x2="39.48" y2="89.28"/>
<line x1="59.71" y1="88.57" x2="50.21" y2="70.70"/></g></svg>