<svg xmlns="http://www.w3.org/2000/svg" width="256" height="256" viewBox="0 0 256 256" fill="none" stroke="currentColor" stroke-width="2" stroke-linecap="round" stroke-linejoin="round"><g stroke="#93C5FD"><line x1="160.20" y1="128.00" x2="220.00" y2="128.00"/><line x1="192.40" y1="128.00" x2="207.90" y2="114.99"/><line x1="192.40" y1="128.00" x2="207.90" y2="141.01"/><line x1="155.89" y1="144.10" x2="207.67" y2="174.00"/><line x1="183.77" y1="160.20" x2="203.70" y2="156.69"/><line x1="183.77" y1="160.20" x2="190.69" y2="179.22"/><line x1="144.10" y1="155.89" x2="174.00" y2="207.67"/><line x1="160.20" y1="183.77" x2="179.22" y2="190.69"/><line x1="160.20" y1="183.77" x2="156.69" y2="203.70"/><line x1="128.00" y1="160.20" x2="128.00" y2="220.00"/><line x1="128.00" y1="192.40" x2="141.01" y2="207.90"/><line x1="128.00" y1="192.40" x2="114.99" y2="207.90"/><line x1="111.90" y1="155.89" x2="82.00" y2="207.67"/><line x1="95.80" y1="183.77" x2="99.31" y2="203.70"/><line x1="95.80" y1="183.77" x2="76.78" y2="190.69"/><line x1="100.11" y1="144.10" x2="48.33" y2="174.00"/><line x1="72.23" y1="160.20" x2="65.31" y2="179.22"/><line x1="72.23" y1="160.20" x2="52.30" y2="156.69"/><line x1="95.80" y1="128.00" x2="36.00" y2="128.00"/><line x1="63.60" y1="128.00" x2="48.10" y2="141.01"/><line x1="63.60" y1="128.00" x2="48.10" y2="114.99"/><line x1="100.11" y1="111.90" x2="48.33" y2="82.00"/><line x1="72.23" y1="95.80" x2="52.30" y2="99.31"/><line x1="72.23" y1="95.80" x2="65.31" y2="76.78"/><line x1="111.90" y1="100.11" x2="82.00" y2="48.33"/><line x1="95.80" y1="72.23" x2="76.78" y2="65.31"/><line x1="95.80" y1="72.23" x2="99.31" y2="52.30"/><line x1="128.00" y1="95.80" x2="128.00" y2="36.00"/><line x1="128.00" y1="63.60" x2="114.99" y2="48.10"/><line x1="128.00" y1="63.60" x2="141.01" y2="48.10"/><line x1="144.10" y1="100.11" x2="174.00" y2="48.33"/><line x1="160.20" y1="72.23" x2="156.69" y2="52.30"/><line x1="160.20" y1="72.23" x2="179.22" y2="65.31"/><line x1="155.89" y1="111.90" x2="207.67" y2="82.00"/><line x1="183.77" y1="95.80" x2="190.69" y2="76.78"/><line x1="183.77" y1="95.80" x2="203.70" y2="99.31"/></g></svg>