<svg xmlns="http://www.w3.org/2000/svg" width="256" height="256" viewBox="0 0 256 256" fill="none" stroke="currentColor" stroke-width="2" stroke-linecap="round" stroke-linejoin="round"><g stroke="#38BDF8"><line x1="128.00" y1="128.00" x2="228.00" y2="128.00"/>
<line x1="188.00" y1="128.00" x2="210.66" y2="117.43"/>
<line x1="188.00" y1="128.00" x2="210.66" y2="138.57"/>
<line x1="128.00" y1="128.00" x2="214.60" y2="178.00"/>
<line x1="179.96" y1="158.00" x2="204.87" y2="160.18"/>
<line x1="179.96" y1="158.00" x2="194.30" y2="178.48"/>
<line x1="128.00" y1="128.00" x2="178.00" y2="214.60"/>
<line x1="158.00" y1="179.96" x2="178.48" y2="194.30"/>
<line x1="158.00" y1="179.96" x2="160.18" y2="204.87"/>
<line x1="128.00" y1="128.00" x2="128.00" y2="228.00"/>
<line x1="128.00" y1="188.00" x2="138.57" y2="210.66"/>
<line x1="128.00" y1="188.00" x2="117.43" y2="210.66"/>
<line x1="128.00" y1="128.00" x2="78.00" y2="214.60"/>
<line x1="98.00" y1="179.96" x2="95.82" y2="204.87"/>
<line x1="98.00" y1="179.96" x2="77.52" y2="194.30"/>
<line x1="128.00" y1="128.00" x2="41.40" y2="178.00"/>
<line x1="76.04" y1="158.00" x2="61.70" y2="178.48"/>
<line x1="76.04" y1="158.00" x2="51.13" y2="160.18"/>
<line x1="128.00" y1="128.00" x2="28.00" y2="128.00"/>
<line x1="68.00" y1="128.00" x2="45.34" y2="138.57"/>
<line x1="68.00" y1="128.00" x2="45.34" y2="117.43"/>
<line x1="128.00" y1="128.00" x2="41.40" y2="78.00"/>
<line x1="76.04" y1="98.00" x2="51.13" y2="95.82"/>
<line x1="76.04" y1="98.00" x2="61.70" y2="77.52"/>
<line x1="128.00" y1="128.00" x2="78.00" y2="41.40"/>
<line x1="98.00" y1="76.04" x2="77.52" y2="61.70"/>
<line x1="98.00" y1="76.04" x2="95.82" y2="51.13"/>
<line x1="128.00" y1="128.00" x2="128.00" y2="28.00"/>
<line x1="128.00" y1="68.00" x2="117.43" y2="45.34"/>
<line x1="128.00" y1="68.00" x2="138.57" y2="45.34"/>
<line x1="128.00" y1="128.00" x2="178.00" y2="41.40"/>
<line x1="158.00" y1="76.04" x2="160.18" y2="51.13"/>
<line x1="158.00" y1="76.04" x2="178.48" y2="61.70"/>
<line x1="128.00" y1="128.00" x2="214.60" y2="78.00"/>
<line x1="179.96" y1="98.00" x2="194.30" y2="77.52"/>
<line x1="179.96" y1="98.00" x2="204.87" y2="95.82"/>
<path d="M 149.65 140.50 L 128.00 153.00 L 106.35 140.50 L 106.35 115.50 L 128.00 103.00 L 149.65 115.50 Z"/></g></svg>