<svg xmlns="http://www.w3.org/2000/svg" width="256" height="256" viewBox="0 0 256 256" fill="none" stroke="currentColor" stroke-width="2" stroke-linecap="round" stroke-linejoin="round"><g stroke="#67E8F9"><line x1="128.00" y1="128.00" x2="128.00" y2="32.00"/><line x1="128.00" y1="32.00" x2="121.53" y2="15.98"/><line x1="128.00" y1="32.00" x2="134.47" y2="15.98"/><line x1="128.00" y1="89.60" x2="121.69" y2="77.73"/><line x1="128.00" y1="89.60" x2="134.31" y2="77.73"/><line x1="128.00" y1="60.80" x2="116.96" y2="40.03"/><line x1="128.00" y1="60.80" x2="139.04" y2="40.03"/><line x1="128.00" y1="128.00" x2="211.14" y2="80.00"/><line x1="211.14" y1="80.00" x2="221.78" y2="66.38"/><line x1="211.14" y1="80.00" x2="228.25" y2="77.60"/><line x1="161.26" y1="108.80" x2="168.38" y2="97.40"/><line x1="161.26" y1="108.80" x2="174.69" y2="108.33"/><line x1="186.20" y1="94.40" x2="198.66" y2="74.45"/><line x1="186.20" y1="94.40" x2="209.70" y2="93.58"/><line x1="128.00" y1="128.00" x2="211.14" y2="176.00"/><line x1="211.14" y1="176.00" x2="228.25" y2="178.40"/><line x1="211.14" y1="176.00" x2="221.78" y2="189.62"/><line x1="161.26" y1="147.20" x2="174.69" y2="147.67"/><line x1="161.26" y1="147.20" x2="168.38" y2="158.60"/><line x1="186.20" y1="161.60" x2="209.70" y2="162.42"/><line x1="186.20" y1="161.60" x2="198.66" y2="181.55"/><line x1="128.00" y1="128.00" x2="128.00" y2="224.00"/><line x1="128.00" y1="224.00" x2="134.47" y2="240.02"/><line x1="128.00" y1="224.00" x2="121.53" y2="240.02"/><line x1="128.00" y1="166.40" x2="134.31" y2="178.27"/><line x1="128.00" y1="166.40" x2="121.69" y2="178.27"/><line x1="128.00" y1="195.20" x2="139.04" y2="215.97"/><line x1="128.00" y1="195.20" x2="116.96" y2="215.97"/><line x1="128.00" y1="128.00" x2="44.86" y2="176.00"/><line x1="44.86" y1="176.00" x2="34.22" y2="189.62"/><line x1="44.86" y1="176.00" x2="27.75" y2="178.40"/><line x1="94.74" y1="147.20" x2="87.62" y2="158.60"/><line x1="94.74" y1="147.20" x2="81.31" y2="147.67"/><line x1="69.80" y1="161.60" x2="57.34" y2="181.55"/><line x1="69.80" y1="161.60" x2="46.30" y2="162.42"/><line x1="128.00" y1="128.00" x2="44.86" y2="80.00"/><line x1="44.86" y1="80.00" x2="27.75" y2="77.60"/><line x1="44.86" y1="80.00" x2="34.22" y2="66.38"/><line x1="94.74" y1="108.80" x2="81.31" y2="108.33"/><line x1="94.74" y1="108.80" x2="87.62" y2="97.40"/><line x1="69.80" y1="94.40" x2="46.30" y2="93.58"/><line x1="69.80" y1="94.40" x2="57.34" y2="74.45"/></g></svg>