<svg xmlns="http://www.w3.org/2000/svg" width="256" height="256" viewBox="0 0 256 256" fill="none" stroke="currentColor" stroke-width="2" stroke-linecap="round" stroke-linejoin="round"><g stroke="#4AC3E0"><path d="M 155.71 144.00 L 128.00 160.00 L 100.29 144.00 L 100.29 112.00 L 128.00 96.00 L 155.71 112.00 Z"/>
<path d="M 192.00 128.00 L 160.00 183.43 L 96.00 183.43 L 64.00 128.00 L 96.00 72.57 L 160.00 72.57 Z"/>
<path d="M 211.14 176.00 L 128.00 224.00 L 44.86 176.00 L 44.86 80.00 L 128.00 32.00 L 211.14 80.00 Z"/>
<line x1="128.00" y1="128.00" x2="128.00" y2="32.00"/>
<line x1="128.00" y1="32.00" x2="118.09" y2="17.85"/>
<line x1="128.00" y1="32.00" x2="137.91" y2="17.85"/>
<line x1="128.00" y1="128.00" x2="211.14" y2="80.00"/>
<line x1="211.14" y1="80.00" x2="218.44" y2="64.34"/>
<line x1="211.14" y1="80.00" x2="228.35" y2="81.51"/>
<line x1="128.00" y1="128.00" x2="211.14" y2="176.00"/>
<line x1="211.14" y1="176.00" x2="228.35" y2="174.49"/>
<line x1="211.14" y1="176.00" x2="218.44" y2="191.66"/>
<line x1="128.00" y1="128.00" x2="128.00" y2="224.00"/>
<line x1="128.00" y1="224.00" x2="137.91" y2="238.15"/>
<line x1="128.00" y1="224.00" x2="118.09" y2="238.15"/>
<line x1="128.00" y1="128.00" x2="44.86" y2="176.00"/>
<line x1="44.86" y1="176.00" x2="37.56" y2="191.66"/>
<line x1="44.86" y1="176.00" x2="27.65" y2="174.49"/>
<line x1="128.00" y1="128.00" x2="44.86" y2="80.00"/>
<line x1="44.86" y1="80.00" x2="27.65" y2="81.51"/>
<line x1="44.86" y1="80.00" x2="37.56" y2="64.34"/></g></svg>