<svg xmlns="http://www.w3.org/2000/svg" width="256" height="256" viewBox="0 0 256 256" fill="none" stroke="currentColor" stroke-width="2" stroke-linecap="round" stroke-linejoin="round"><g stroke="#A5F3FC"><path d="M 148.35 139.75 L 128.00 151.50 L 107.65 139.75 L 107.65 116.25 L 128.00 104.50 L 148.35 116.25 Z"/>
<path d="M 175.00 128.00 L 151.50 168.70 L 104.50 168.70 L 81.00 128.00 L 104.50 87.30 L 151.50 87.30 Z"/>
<path d="M 189.05 163.25 L 128.00 198.50 L 66.95 163.25 L 66.95 92.75 L 128.00 57.50 L 189.05 92.75 Z"/>
<path d="M 222.00 128.00 L 175.00 209.41 L 81.00 209.41 L 34.00 128.00 L 81.00 46.59 L 175.00 46.59 Z"/>
<line x1="128.00" y1="128.00" x2="128.00" y2="34.00"/>
<line x1="128.00" y1="34.00" x2="118.30" y2="20.14"/>
<line x1="128.00" y1="34.00" x2="137.70" y2="20.14"/>
<line x1="128.00" y1="128.00" x2="209.41" y2="81.00"/>
<line x1="209.41" y1="81.00" x2="216.56" y2="65.67"/>
<line x1="209.41" y1="81.00" x2="226.26" y2="82.47"/>
<line x1="128.00" y1="128.00" x2="209.41" y2="175.00"/>
<line x1="209.41" y1="175.00" x2="226.26" y2="173.53"/>
<line x1="209.41" y1="175.00" x2="216.56" y2="190.33"/>
<line x1="128.00" y1="128.00" x2="128.00" y2="222.00"/>
<line x1="128.00" y1="222.00" x2="137.70" y2="235.86"/>
<line x1="128.00" y1="222.00" x2="118.30" y2="235.86"/>
<line x1="128.00" y1="128.00" x2="46.59" y2="175.00"/>
<line x1="46.59" y1="175.00" x2="39.44" y2="190.33"/>
<line x1="46.59" y1="175.00" x2="29.74" y2="173.53"/>
<line x1="128.00" y1="128.00" x2="46.59" y2="81.00"/>
<line x1="46.59" y1="81.00" x2="29.74" y2="82.47"/>
<line x1="46.59" y1="81.00" x2="39.44" y2="65.67"/><circle cx="207.90" cy="128.00" r="2.40" />
<circle cx="206.69" cy="141.87" r="2.40" />
<circle cx="203.08" cy="155.33" r="2.40" />
<circle cx="197.20" cy="167.95" r="2.40" />
<circle cx="189.21" cy="179.36" r="2.40" />
<circle cx="179.36" cy="189.21" r="2.40" />
<circle cx="167.95" cy="197.20" r="2.40" />
<circle cx="155.33" cy="203.08" r="2.40" />
<circle cx="141.87" cy="206.69" r="2.40" />
<circle cx="128.00" cy="207.90" r="2.40" />
<circle cx="114.13" cy="206.69" r="2.40" />
<circle cx="100.67" cy="203.08" r="2.40" />
<circle cx="88.05" cy="197.20" r="2.40" />
<circle cx="76.64" cy="189.21" r="2.40" />
<circle cx="66.79" cy="179.36" r="2.40" />
<circle cx="58.80" cy="167.95" r="2.40" />
<circle cx="52.92" cy="155.33" r="2.40" />
<circle cx="49.31" cy="141.87" r="2.40" />
<circle cx="48.10" cy="128.00" r="2.40" />
<circle cx="49.31" cy="114.13" r="2.40" />
<circle cx="52.92" cy="100.67" r="2.40" />
<circle cx="58.80" cy="88.05" r="2.40" />
<circle cx="66.79" cy="76.64" r="2.40" />
<circle cx="76.64" cy="66.79" r="2.40" />
<circle cx="88.05" cy="58.80" r="2.40" />
<circle cx="100.67" cy="52.92" r="2.40" />
<circle cx="114.13" cy="49.31" r="2.40" />
<circle cx="128.00" cy="48.10" r="2.40" />
<circle cx="141.87" cy="49.31" r="2.40" />
<circle cx="155.33" cy="52.92" r="2.40" />
<circle cx="167.95" cy="58.80" r="2.40" />
<circle cx="179.36" cy="66.79" r="2.40" />
<circle cx="189.21" cy="76.64" r="2.40" />
<circle cx="197.20" cy="88.05" r="2.40" />
<circle cx="203.08" cy="100.67" r="2.40" />
<circle cx="206.69" cy="114.13" r="2.40" /></g></svg>