<svg xmlns="http://www.w3.org/2000/svg" width="256" height="256" viewBox="0 0 256 256" fill="none">
<defs>
  <linearGradient id="g_light" x1="0%" y1="0%" x2="0%" y2="100%">
    <stop offset="0%" stop-color="#a5f3fc"/>
    <stop offset="100%" stop-color="#06b6d4"/>
  </linearGradient>
  <linearGradient id="g_blue" x1="0%" y1="0%" x2="100%" y2="100%">
    <stop offset="0%" stop-color="#60a5fa"/>
    <stop offset="100%" stop-color="#0284c7"/>
  </linearGradient>
  <filter id="blurSmall" x="-20%" y="-20%" width="140%" height="140%">
    <feGaussianBlur in="SourceGraphic" stdDeviation="1.6"/>
  </filter>
</defs><g stroke="#0369a1" stroke-width="2" fill="url(#g_blue)"><path d="M128 86 C116 86,104 96,104 108 C104 128,120 144,128 156 C136 144,152 128,152 108 C152 96,140 86,128 86 Z"/><path d="M 128.0 76.0 L 128.0 48.0" stroke="#0369a1" stroke-width="1.6" /><path d="M 154.0 83.0 L 168.0 58.7" stroke="#0369a1" stroke-width="1.0" /><path d="M 173.0 102.0 L 197.3 88.0" stroke="#0369a1" stroke-width="1.6" /><path d="M 180.0 128.0 L 208.0 128.0" stroke="#0369a1" stroke-width="1.0" /><path d="M 173.0 154.0 L 197.3 168.0" stroke="#0369a1" stroke-width="1.6" /><path d="M 154.0 173.0 L 168.0 197.3" stroke="#0369a1" stroke-width="1.0" /><path d="M 128.0 180.0 L 128.0 208.0" stroke="#0369a1" stroke-width="1.6" /><path d="M 102.0 173.0 L 88.0 197.3" stroke="#0369a1" stroke-width="1.0" /><path d="M 83.0 154.0 L 58.7 168.0" stroke="#0369a1" stroke-width="1.6" /><path d="M 76.0 128.0 L 48.0 128.0" stroke="#0369a1" stroke-width="1.0" /><path d="M 83.0 102.0 L 58.7 88.0" stroke="#0369a1" stroke-width="1.6" /><path d="M 102.0 83.0 L 88.0 58.7" stroke="#0369a1" stroke-width="1.0" /></g></svg>