<svg xmlns="http://www.w3.org/2000/svg" width="256" height="256" viewBox="0 0 256 256" fill="none">
<defs>
  <linearGradient id="g_light" x1="0%" y1="0%" x2="0%" y2="100%">
    <stop offset="0%" stop-color="#a5f3fc"/>
    <stop offset="100%" stop-color="#06b6d4"/>
  </linearGradient>
  <linearGradient id="g_blue" x1="0%" y1="0%" x2="100%" y2="100%">
    <stop offset="0%" stop-color="#60a5fa"/>
    <stop offset="100%" stop-color="#0284c7"/>
  </linearGradient>
  <filter id="blurSmall" x="-20%" y="-20%" width="140%" height="140%">
    <feGaussianBlur in="SourceGraphic" stdDeviation="1.6"/>
  </filter>
</defs><g fill="url(#g_light)" stroke="#0369a1" stroke-width="1.2"><path d="M128 74 C110 74,96 94,100 112 C78 122,76 148,96 162 C112 174,136 172,156 182 C178 192,200 178,204 156 C222 146,224 128,212 116 C216 104,202 90,186 82 C168 74,148 74,128 74 Z"/><circle cx="80" cy="98" r="6" fill="#a5f3fc" opacity="0.85"/><circle cx="184" cy="86" r="8" fill="#a5f3fc" opacity="0.85"/><circle cx="118" cy="178" r="5" fill="#a5f3fc" opacity="0.85"/><circle cx="168" cy="172" r="6" fill="#a5f3fc" opacity="0.85"/><circle cx="58" cy="132" r="4" fill="#a5f3fc" opacity="0.85"/></g></svg>