<svg xmlns="http://www.w3.org/2000/svg" width="256" height="256" viewBox="0 0 256 256" fill="none">
<defs>
  <linearGradient id="g_light" x1="0%" y1="0%" x2="0%" y2="100%">
    <stop offset="0%" stop-color="#a5f3fc"/>
    <stop offset="100%" stop-color="#06b6d4"/>
  </linearGradient>
  <linearGradient id="g_blue" x1="0%" y1="0%" x2="100%" y2="100%">
    <stop offset="0%" stop-color="#60a5fa"/>
    <stop offset="100%" stop-color="#0284c7"/>
  </linearGradient>
  <filter id="blurSmall" x="-20%" y="-20%" width="140%" height="140%">
    <feGaussianBlur in="SourceGraphic" stdDeviation="1.6"/>
  </filter>
</defs><g fill="url(#g_blue)" stroke="#0369a1" stroke-width="2"><path d="M128 84 C108 84,96 102,100 122 C68 132,68 164,96 176 C116 186,140 184,160 194 C182 204,206 188,210 166 C228 158,236 134,220 118 C226 104,206 92,186 86 C164 80,146 82,128 84 Z"/><ellipse cx="90" cy="72" rx="10" ry="14" /><ellipse cx="190" cy="60" rx="14" ry="18" /></g></svg>